<svg role="img" viewBox="0 0 24 24" xmlns="http://www.w3.org/2000/svg" fill="currentColor">
  <path d="M10.705 0C4.792 0 0 4.793 0 10.705c0 5.913 4.792 10.705 10.705 10.705 5.912 0 10.704-4.792 10.704-10.705C21.41 4.793 16.617 0 10.705 0zm0 2.488a8.217 8.217 0 0 1 8.216 8.217 8.217 8.217 0 0 1-8.216 8.217 8.217 8.217 0 0 1-8.217-8.217 8.217 8.217 0 0 1 8.217-8.217zm0 2.052a6.165 6.165 0 0 0-6.165 6.165 6.165 6.165 0 0 0 6.165 6.164 6.165 6.165 0 0 0 6.164-6.164 6.165 6.165 0 0 0-6.164-6.165zm0 2.051a4.113 4.113 0 0 1 4.113 4.114 4.113 4.113 0 0 1-4.113 4.113 4.113 4.113 0 0 1-4.114-4.113 4.113 4.113 0 0 1 4.114-4.114z"/>
</svg>
